<svg width="60" height="60" viewBox="0 0 60 60" fill="none" xmlns="http://www.w3.org/2000/svg">
<path d="M59.5312 22.2188L51 2.71875C50.5312 1.6875 49.7812 0.9375 48.75 0.46875C48.4687 0.46875 48.4687 0.1875 48.2812 0.1875C48 0 47.7187 0 47.25 0H46.9687H13.0312C11.25 0 9.74999 1.03125 8.99999 2.71875L0.468742 22.2188C-0.281258 23.7188 -7.94604e-06 25.5 0.937492 26.7188L26.4375 58.2188C27.1875 59.4375 28.4062 60 29.9062 60C31.4062 60 32.625 59.25 33.375 58.2188L59.1562 26.4375C60 25.2188 60.2812 23.7188 59.5312 22.2188ZM54.2812 22.5H42.4687L47.7187 8.25L54.2812 22.5ZM30 10.0312L37.0312 22.5H22.7812L30 10.0312ZM20.25 16.9688L15.2812 4.96875H27.2812L20.25 16.9688ZM33 4.96875H43.9687L39.75 16.6875L33 4.96875ZM36.4687 27.4688L30 49.0312L23.5312 27.5625H36.4687V27.4688ZM18.2812 27.4688L24.5625 47.7188L7.96874 27.4688H18.2812ZM41.7187 27.4688H51.9375L35.7187 47.7188L41.7187 27.4688ZM11.5312 9.28125L17.25 22.5H5.71874L11.5312 9.28125Z" fill="#F06F62"/>
</svg>
