<svg width="60" height="60" viewBox="0 0 60 60" fill="none" xmlns="http://www.w3.org/2000/svg">
<path d="M50.3438 9C49.3125 7.96875 48.2812 7.5 47.0625 7.5H13.7812V2.53125C13.7812 1.03125 12.75 0 11.25 0C9.75 0 8.8125 1.03125 8.8125 2.53125V7.5V34.9688V57.4688C8.8125 58.9688 9.84375 60 11.3438 60C12.8438 60 13.875 58.9688 13.875 57.4688V34.9688H44.0625C46.0312 34.9688 47.8125 33.4688 48.0938 31.5L51.0937 12C51.375 10.9688 51.0938 9.75 50.3438 9ZM43.3125 30H13.7812V12.4688H46.0312L43.3125 30Z" fill="#F06F62"/>
</svg>
