<svg width="180" height="25" viewBox="0 0 180 25" fill="none" xmlns="http://www.w3.org/2000/svg">
<path d="M43.8922 1V24.745L40.4459 21.4881L28.1001 9.71029V24.745H24.6538V1.07574L28.1001 4.33263L40.4459 16.1105V1H43.8922Z" fill="#3C3B3B"/>
<path d="M132.889 24.745H109.144L121.035 1L132.889 24.745ZM115.051 21.1094H127.056L121.073 9.10436L115.051 21.1094Z" fill="#3C3B3B"/>
<path d="M68.5839 12.8914C68.5839 19.4431 63.282 24.745 56.7303 24.745C50.1787 24.745 44.8389 19.4431 44.8389 12.8914C44.8389 6.30192 50.1787 1 56.7303 1C60.2902 1 63.4713 2.59057 65.6678 5.05218L62.7518 7.96823C61.3127 6.22617 59.154 5.09005 56.7303 5.09005C52.413 5.09005 48.9289 8.57416 48.9289 12.8914C48.9289 17.2087 52.413 20.6928 56.7303 20.6928C59.76 20.6928 62.3731 18.9886 63.6607 16.4513H58.1694L57.5635 12.8914H63.6985H64.5696H68.5839Z" fill="#3C3B3B"/>
<path d="M72.068 22.3591C70.7047 20.9958 69.9473 19.1023 69.9473 16.9815V1H73.9237V16.9815C73.9237 19.481 75.7036 20.8064 79.112 20.8064C82.5204 20.8064 84.376 19.4052 84.376 16.9057V1H88.3525V16.9057C88.3525 20.5413 85.9288 24.745 79.112 24.745C76.0445 24.745 73.6586 23.9497 72.068 22.3591Z" fill="#3C3B3B"/>
<path d="M108.197 24.745H94.0714H90.0571V1H94.0714V20.7307H107.402L108.197 24.745Z" fill="#3C3B3B"/>
<path d="M152.809 1H156.823V24.745H152.809V1Z" fill="#3C3B3B"/>
<path d="M180 16.8679C180 20.1626 176.895 24.7829 170.078 24.7829C163.829 24.745 160.762 20.8443 160.269 17.6632L164.208 16.9436C164.284 17.8904 165.344 20.8443 170.078 20.8443C174.963 20.8822 175.986 17.7389 175.986 16.8679C175.986 15.9211 174.13 14.8986 170.078 14.8607C160.913 14.8228 160.231 10.2784 160.231 8.87713C160.231 5.62024 163.337 1 170.154 1C176.402 1.03787 179.47 4.93857 179.924 8.11971L175.986 8.87713C175.91 7.93036 174.85 5.01431 170.116 5.01431C165.268 4.97644 164.208 8.11971 164.208 8.915C164.208 9.71029 165.761 10.8843 170.116 10.9222C173.221 10.9222 175.607 11.4523 177.311 12.4749C179.053 13.4974 180.038 15.0501 180 16.8679Z" fill="#3C3B3B"/>
<path d="M149.931 24.745H145.689C145.614 24.745 145.424 24.6693 145.386 24.5557L141.069 15.1258H138.532V24.4799C138.532 24.5935 138.38 24.745 138.191 24.745H134.29C134.139 24.745 133.987 24.5935 133.987 24.4799V10.8085H138.494H141.978C142.963 10.8085 145.5 10.6949 145.5 8.08184C145.5 5.46876 142.698 5.31727 141.978 5.31727H138.494H133.987V1.2651C133.987 1.15148 134.139 1 134.29 1H141.978C143.304 1 150.007 1.07574 150.007 8.08184C150.007 11.7174 148 13.611 145.652 14.482C147.128 17.8525 148.757 21.1094 150.234 24.4042C150.272 24.5935 150.158 24.745 149.931 24.745Z" fill="#3C3B3B"/>
<path d="M23.745 24.745H0L11.8914 1L23.745 24.745ZM5.90785 21.1094H17.9129L11.8914 9.10436L5.90785 21.1094Z" fill="#3C3B3B"/>
</svg>
