<svg width="404" height="56" viewBox="0 0 404 56" fill="none" xmlns="http://www.w3.org/2000/svg">
<path d="M98.2699 2.23999V55.4288L90.5541 48.1334L62.913 21.751V55.4288H55.1973V2.40965L62.913 9.70509L90.5541 36.0874V2.23999H98.2699Z" fill="#F06F62"/>
<path d="M297.523 55.4288H244.36L270.984 2.23999L297.523 55.4288ZM257.587 47.2851H284.465L271.069 20.3937L257.587 47.2851Z" fill="#F06F62"/>
<path d="M153.552 28.8768C153.552 43.5525 141.682 55.4288 127.013 55.4288C112.345 55.4288 100.39 43.5525 100.39 28.8768C100.39 14.1163 112.345 2.23999 127.013 2.23999C134.983 2.23999 142.106 5.80288 147.023 11.3169L140.495 17.8488C137.273 13.9466 132.44 11.4017 127.013 11.4017C117.347 11.4017 109.547 19.2061 109.547 28.8768C109.547 38.5475 117.347 46.3519 127.013 46.3519C133.796 46.3519 139.647 42.5345 142.53 36.8509H130.235L128.879 28.8768H142.614H144.564H153.552Z" fill="#F06F62"/>
<path d="M161.352 50.0845C158.3 47.0306 156.604 42.789 156.604 38.0385V2.23999H165.507V38.0385C165.507 43.6373 169.492 46.6064 177.123 46.6064C184.754 46.6064 188.908 43.4677 188.908 37.8689V2.23999H197.811V37.8689C197.811 46.0126 192.385 55.4288 177.123 55.4288C170.255 55.4288 164.913 53.6474 161.352 50.0845Z" fill="#F06F62"/>
<path d="M242.242 55.4288H210.616H201.628V2.23999H210.616V46.4367H240.461L242.242 55.4288Z" fill="#F06F62"/>
<path d="M342.122 2.23999H351.109V55.4288H342.122V2.23999Z" fill="#F06F62"/>
<path d="M403 37.784C403 45.1643 396.047 55.5136 380.785 55.5136C366.795 55.4288 359.927 46.6912 358.825 39.5655L367.643 37.9537C367.813 40.0745 370.187 46.6912 380.785 46.6912C391.723 46.7761 394.012 39.7351 394.012 37.784C394.012 35.6633 389.858 33.3728 380.785 33.288C360.266 33.2032 358.74 23.0235 358.74 19.8848C358.74 12.5893 365.693 2.23999 380.955 2.23999C394.945 2.32482 401.813 11.0624 402.83 18.1881L394.012 19.8848C393.843 17.764 391.469 11.232 380.87 11.232C370.017 11.1472 367.643 18.1881 367.643 19.9696C367.643 21.751 371.119 24.3808 380.87 24.4656C387.823 24.4656 393.164 25.6532 396.98 27.9437C400.88 30.2341 403.085 33.7122 403 37.784Z" fill="#F06F62"/>
<path d="M335.678 55.4288H326.182C326.013 55.4288 325.589 55.2591 325.504 55.0046L315.838 33.8818H310.157V54.835C310.157 55.0895 309.818 55.4288 309.394 55.4288H300.661C300.322 55.4288 299.982 55.0895 299.982 54.835V24.2111H310.072H317.873C320.077 24.2111 325.758 23.9566 325.758 18.1033C325.758 12.25 319.484 11.9107 317.873 11.9107H310.072H299.982V2.8338C299.982 2.57931 300.322 2.23999 300.661 2.23999H317.873C320.84 2.23999 335.848 2.40965 335.848 18.1033C335.848 26.2471 331.354 30.4886 326.097 32.4397C329.404 39.9896 333.05 47.2851 336.357 54.6653C336.442 55.0895 336.187 55.4288 335.678 55.4288Z" fill="#F06F62"/>
<path d="M53.1624 55.4288H0L26.6236 2.23999L53.1624 55.4288ZM13.227 47.2851H40.105L26.6236 20.3937L13.227 47.2851Z" fill="#F06F62"/>
</svg>
